<svg width="40" height="40" viewBox="0 0 40 40" fill="none" xmlns="http://www.w3.org/2000/svg">
<path d="M18.9414 2.15447C19.6393 2.00613 20.3607 2.00613 21.0586 2.15447C21.8474 2.32214 22.5893 2.75084 24.0732 3.60759L32.0557 8.21599C33.5394 9.07261 34.2817 9.50058 34.8213 10.0998C35.2987 10.63 35.6594 11.2552 35.8799 11.9338C36.1291 12.7008 36.1289 13.5581 36.1289 15.2717V24.4885C36.1289 26.2017 36.129 27.0584 35.8799 27.8254C35.6594 28.504 35.2988 29.1291 34.8213 29.6594C34.2817 30.2586 33.5394 30.6865 32.0557 31.5431L24.0732 36.1525C22.5895 37.0091 21.8474 37.437 21.0586 37.6047C20.3606 37.753 19.6394 37.753 18.9414 37.6047C18.1526 37.437 17.4105 37.0091 15.9268 36.1525L7.94434 31.5431C6.4606 30.6865 5.71831 30.2586 5.17871 29.6594C4.70124 29.1291 4.34062 28.504 4.12012 27.8254C3.87095 27.0584 3.87109 26.2017 3.87109 24.4885V15.2717C3.87109 13.5581 3.8709 12.7008 4.12012 11.9338C4.34063 11.2552 4.70126 10.63 5.17871 10.0998C5.71831 9.50058 6.46064 9.07261 7.94434 8.21599L15.9268 3.60759C17.4107 2.75084 18.1526 2.32214 18.9414 2.15447ZM17.623 8.28338C17.1481 8.3083 16.6836 8.43268 16.2598 8.64861C15.7808 8.89267 15.3768 9.29621 14.5693 10.1037L10.2246 14.4494C9.41683 15.2572 9.01264 15.6608 8.76855 16.1398C8.55261 16.5636 8.42823 17.0281 8.40332 17.5031C8.37518 18.04 8.52269 18.592 8.81836 19.6955L10.4092 25.6301C10.7048 26.7335 10.8527 27.2856 11.1455 27.7365C11.4046 28.1354 11.7446 28.4755 12.1436 28.7345C12.5944 29.0273 13.1459 29.1753 14.249 29.4709L20.1846 31.0617C21.288 31.3573 21.8401 31.5049 22.377 31.4767C22.8519 31.4518 23.3165 31.3274 23.7402 31.1115C24.2193 30.8674 24.6229 30.4632 25.4307 29.6554L29.7754 25.3107C30.583 24.5031 30.9873 24.0992 31.2314 23.6203C31.4473 23.1966 31.5717 22.7319 31.5967 22.257C31.6248 21.7201 31.4773 21.1679 31.1816 20.0646L29.5908 14.1291C29.2952 13.0259 29.1472 12.4745 28.8545 12.0236C28.5954 11.6246 28.2554 11.2837 27.8564 11.0246C27.4056 10.7319 26.854 10.5838 25.751 10.2883L19.8154 8.69841C18.712 8.40275 18.16 8.25524 17.623 8.28338Z" fill="url(#paint0_linear_34_3091)"/>
<path d="M16.1119 15.8612C16.3975 15.3665 16.5403 15.1192 16.7401 14.9393C16.9168 14.7802 17.1251 14.66 17.3513 14.5865C17.607 14.5034 17.8926 14.5034 18.4637 14.5034L21.536 14.5034C22.1072 14.5034 22.3928 14.5034 22.6485 14.5865C22.8747 14.66 23.0829 14.7802 23.2597 14.9393C23.4595 15.1192 23.6023 15.3665 23.8879 15.8612L25.424 18.5219C25.7096 19.0166 25.8524 19.2639 25.9083 19.5268C25.9577 19.7595 25.9578 20 25.9083 20.2326C25.8524 20.4956 25.7096 20.7429 25.424 21.2376L23.8879 23.8982C23.6023 24.3929 23.4595 24.6402 23.2597 24.8201C23.0829 24.9793 22.8747 25.0995 22.6485 25.173C22.3928 25.2561 22.1072 25.2561 21.536 25.2561L18.4637 25.2561C17.8926 25.2561 17.607 25.2561 17.3513 25.173C17.1251 25.0995 16.9168 24.9793 16.7401 24.8201C16.5403 24.6402 16.3975 24.3929 16.1119 23.8982L14.5758 21.2376C14.2902 20.7429 14.1474 20.4956 14.0915 20.2326C14.042 20 14.042 19.7595 14.0915 19.5268C14.1474 19.2639 14.2902 19.0166 14.5758 18.5219L16.1119 15.8612Z" fill="url(#paint1_linear_34_3091)"/>
<defs>
<linearGradient id="paint0_linear_34_3091" x1="3.87109" y1="19.8796" x2="36.1289" y2="19.8796" gradientUnits="userSpaceOnUse">
<stop stop-color="#333333"/>
<stop offset="0.0001" stop-color="#333333"/>
<stop offset="1" stop-color="#585858"/>
</linearGradient>
<linearGradient id="paint1_linear_34_3091" x1="15.3438" y1="22.5679" x2="24.6559" y2="17.1916" gradientUnits="userSpaceOnUse">
<stop stop-color="#333333"/>
<stop offset="0.0001" stop-color="#333333"/>
<stop offset="1" stop-color="#585858"/>
</linearGradient>
</defs>
</svg>
